<?xml version="1.0" encoding="UTF-8" standalone="no"?>
<svg fill="#ffffff" viewBox="0 0 264 192" stroke-width="1.5" stroke="currentColor" class="size-6" version="1.1"
  id="svg1" width="2.75in" height="2in" xmlns:xlink="http://www.w3.org/1999/xlink" xmlns="http://www.w3.org/2000/svg"
  xmlns:svg="http://www.w3.org/2000/svg">
  <defs id="defs1" />
  <path stroke-linecap="round" stroke-linejoin="round"
    d="m 38.014046,14.476583 v 4.93225 M 25.68342,31.739459 h -4.93225 m 59.187003,0 H 75.005922 M 25.68342,44.070085 h -4.93225 m 59.187003,0 H 75.005922 M 25.68342,56.40071 h -4.93225 m 59.187003,0 H 75.005922 M 38.014046,68.731335 v 4.932251 M 50.344672,14.476583 v 4.93225 m 0,49.322502 v 4.932251 M 62.675297,14.476583 v 4.93225 m 0,49.322502 v 4.932251 M 33.081796,68.731335 h 34.525752 a 7.3983755,7.3983755 0 0 0 7.398374,-7.398374 V 26.807209 A 7.3983755,7.3983755 0 0 0 67.607548,19.408833 H 33.081796 a 7.3983755,7.3983755 0 0 0 -7.398376,7.398376 v 34.525752 a 7.3983755,7.3983755 0 0 0 7.398376,7.398374 z M 35.547921,29.273334 H 65.141422 V 58.866835 H 35.547921 Z"
    id="path1" style="stroke-width:4.93225" />
  <text xml:space="preserve"
    style="font-size:32px;font-family:sans-serif;fill:#000000;stroke-width:0.377953;stroke-linecap:round" x="95.165054"
    y="54.486771" id="text1">
    <tspan id="tspan1" x="95.165054" y="54.486771" style="font-size:32px">{{text}}</tspan>
  </text>
  <g id="g5" transform="translate(-39.041846)">
    <text xml:space="preserve"
      style="font-size:21.3333px;font-family:sans-serif;fill:#000000;stroke-width:0.377953;stroke-linecap:round"
      x="59.623043" y="176.67268" id="asset">
      <tspan id="tspan2" x="59.623043" y="176.67268" dx="0 0" style="font-size:21.3333px">{{asset}} </tspan>
    </text>
    <image id="asset_qrcode" width="59.659645" height="59.659645" x="71.408684" y="87.607109"
      xlink:href="{{asset [qrcode]}}" style="stroke:none" preserveAspectRatio="xMidYMid" />
  </g>
  <g id="g4" transform="translate(-13.270398,1.0064871)">
    <text xml:space="preserve"
      style="font-size:21.3333px;font-family:sans-serif;fill:#000000;stroke-width:0.377953;stroke-linecap:round"
      x="158.15536" y="175.51109" id="text3">
      <tspan id="tspan3" x="109.15537" y="175.51109" dx="0 0" style="font-size:21.3333px"> {{serial}}</tspan>
    </text>
    <image id="serial_qrcode" width="59.659645" height="59.659645" x="173.48384" y="87.607109"
      xlink:href="{{serial [qrcode]}}" style="stroke:none" preserveAspectRatio="xMidYMid" />
  </g>
</svg>
