<?xml version="1.0" encoding="UTF-8" standalone="no"?>
<!-- Created with Inkscape (http://www.inkscape.org/) -->

<svg
   fill="none"
   viewBox="0 0 512 512"
   stroke-width="1.5"
   stroke="currentColor"
   class="w-6 h-6"
   version="1.1"
   id="svg246"
   sodipodi:docname="logo.svg"
   inkscape:version="1.2 (dc2aeda, 2022-05-15)"
   xml:space="preserve"
   width="512"
   height="512"
   inkscape:export-filename="../priv/icon.png"
   inkscape:export-xdpi="192"
   inkscape:export-ydpi="192"
   xmlns:inkscape="http://www.inkscape.org/namespaces/inkscape"
   xmlns:sodipodi="http://sodipodi.sourceforge.net/DTD/sodipodi-0.dtd"
   xmlns="http://www.w3.org/2000/svg"
   xmlns:svg="http://www.w3.org/2000/svg"><defs
     id="defs250"><rect
       x="208.38611"
       y="19.97751"
       width="14.466474"
       height="17.221992"
       id="rect270" /><filter
       style="color-interpolation-filters:sRGB"
       id="filter6125"
       x="0"
       y="0"
       width="1"
       height="1"><feColorMatrix
         type="hueRotate"
         values="281"
         result="color1"
         id="feColorMatrix6121" /><feColorMatrix
         type="saturate"
         values="0"
         result="fbSourceGraphic"
         id="feColorMatrix6123" /><feColorMatrix
         result="fbSourceGraphicAlpha"
         in="fbSourceGraphic"
         values="0 0 0 -1 0 0 0 0 -1 0 0 0 0 -1 0 0 0 0 1 0"
         id="feColorMatrix6171" /><feColorMatrix
         id="feColorMatrix6173"
         values="3.03883 0 0 -0.999906 -1.01942 0 3.03883 0 -0.999906 -1.01942 0 0 3.03883 -0.999906 -1.01942 0 0 0 1 0"
         in="fbSourceGraphic" /></filter><filter
       style="color-interpolation-filters:sRGB"
       id="filter459"
       x="0"
       y="0"
       width="1"
       height="1"><feColorMatrix
         type="hueRotate"
         values="281"
         result="color1"
         id="feColorMatrix455" /><feColorMatrix
         type="saturate"
         values="0"
         result="fbSourceGraphic"
         id="feColorMatrix457" /><feColorMatrix
         result="fbSourceGraphicAlpha"
         in="fbSourceGraphic"
         values="0 0 0 -1 0 0 0 0 -1 0 0 0 0 -1 0 0 0 0 1 0"
         id="feColorMatrix819" /><feColorMatrix
         id="feColorMatrix821"
         values="0 0 0 0 0 0 0 0 0 0 0 0 0 0 0 -3.16456 -3.35443 -3.73418 4.07 0 "
         in="fbSourceGraphic" /></filter></defs><sodipodi:namedview
     id="namedview248"
     pagecolor="#ffffff"
     bordercolor="#000000"
     borderopacity="0.25"
     inkscape:showpageshadow="2"
     inkscape:pageopacity="0.0"
     inkscape:pagecheckerboard="true"
     inkscape:deskcolor="#d1d1d1"
     showgrid="false"
     inkscape:zoom="1.2393608"
     inkscape:cx="277.96587"
     inkscape:cy="278.77274"
     inkscape:window-width="1514"
     inkscape:window-height="955"
     inkscape:window-x="599"
     inkscape:window-y="179"
     inkscape:window-maximized="0"
     inkscape:current-layer="g5314" /><g
     id="g5314"
     transform="translate(2.8906097,2.8906097)"><rect
       style="fill:#2e6fb6;fill-opacity:1;stroke:none;stroke-width:23.0698;stroke-linecap:round;stroke-linejoin:round;stroke-miterlimit:50;stroke-dasharray:none"
       id="rect1017"
       width="506.21878"
       height="506.21878"
       x="4.121091e-08"
       y="4.121091e-08"
       rx="66.666664" /><g
       style="fill:currentColor;stroke:none;stroke-opacity:1"
       id="g5426"
       transform="matrix(18.674241,0,0,18.674241,29.018498,29.018498)"><path
         fill-rule="evenodd"
         d="M 7.875,1.5 C 6.839,1.5 6,2.34 6,3.375 v 2.99 C 5.574,6.418 5.149,6.475 4.726,6.539 3.272,6.757 2.25,8.022 2.25,9.456 v 6.294 a 3,3 0 0 0 3,3 H 5.52 L 5.365,20.455 A 1.875,1.875 0 0 0 7.232,22.5 h 9.536 a 1.875,1.875 0 0 0 1.867,-2.045 L 18.48,18.75 h 0.27 a 3,3 0 0 0 3,-3 V 9.456 c 0,-1.434 -1.022,-2.7 -2.476,-2.917 A 48.716,48.716 0 0 0 18,6.366 V 3.375 C 18,2.339 17.16,1.5 16.125,1.5 Z M 16.5,6.205 V 3.375 A 0.375,0.375 0 0 0 16.125,3 H 7.875 A 0.375,0.375 0 0 0 7.5,3.375 v 2.83 a 49.353,49.353 0 0 1 9,0 z m -0.217,8.265 c 0.178,0.018 0.317,0.16 0.333,0.337 l 0.526,5.784 A 0.375,0.375 0 0 1 16.768,21 H 7.232 A 0.375,0.375 0 0 1 6.858,20.591 l 0.526,-5.784 a 0.373,0.373 0 0 1 0.333,-0.337 41.741,41.741 0 0 1 8.566,0 z M 17.25,10.5 A 0.75,0.75 0 0 1 18,9.75 h 0.008 a 0.75,0.75 0 0 1 0.75,0.75 v 0.008 a 0.75,0.75 0 0 1 -0.75,0.75 H 18 a 0.75,0.75 0 0 1 -0.75,-0.75 z M 15,9.75 a 0.75,0.75 0 0 0 -0.75,0.75 v 0.008 c 0,0.414 0.336,0.75 0.75,0.75 h 0.008 a 0.75,0.75 0 0 0 0.75,-0.75 V 10.5 a 0.75,0.75 0 0 0 -0.75,-0.75 z"
         clip-rule="evenodd"
         id="path4825"
         style="fill:#ffffff;fill-opacity:1;stroke:none;stroke-opacity:1" /></g></g></svg>
