<?xml version="1.0" encoding="UTF-8" standalone="no"?>
<svg
   viewBox="0 0 24 24"
   fill="currentColor"
   class="w-6 h-6"
   version="1.1"
   id="svg4827"
   sodipodi:docname="logo-tiny.svg"
   inkscape:export-filename="../priv/icon32x32.png"
   inkscape:export-xdpi="128"
   inkscape:export-ydpi="128"
   inkscape:version="1.2 (dc2aeda, 2022-05-15)"
   xmlns:inkscape="http://www.inkscape.org/namespaces/inkscape"
   xmlns:sodipodi="http://sodipodi.sourceforge.net/DTD/sodipodi-0.dtd"
   xmlns="http://www.w3.org/2000/svg"
   xmlns:svg="http://www.w3.org/2000/svg">
  <defs
     id="defs4831" />
  <sodipodi:namedview
     id="namedview4829"
     pagecolor="#ffffff"
     bordercolor="#000000"
     borderopacity="0.25"
     inkscape:showpageshadow="2"
     inkscape:pageopacity="0.0"
     inkscape:pagecheckerboard="true"
     inkscape:deskcolor="#d1d1d1"
     showgrid="false"
     inkscape:zoom="21.30397"
     inkscape:cx="6.6654243"
     inkscape:cy="11.570613"
     inkscape:window-width="1390"
     inkscape:window-height="1205"
     inkscape:window-x="0"
     inkscape:window-y="25"
     inkscape:window-maximized="0"
     inkscape:current-layer="svg4827" />
  <path
     fill-rule="evenodd"
     d="M7.875 1.5C6.839 1.5 6 2.34 6 3.375v2.99c-.426.053-.851.11-1.274.174-1.454.218-2.476 1.483-2.476 2.917v6.294a3 3 0 003 3h.27l-.155 1.705A1.875 1.875 0 007.232 22.5h9.536a1.875 1.875 0 001.867-2.045l-.155-1.705h.27a3 3 0 003-3V9.456c0-1.434-1.022-2.7-2.476-2.917A48.716 48.716 0 0018 6.366V3.375c0-1.036-.84-1.875-1.875-1.875h-8.25zM16.5 6.205v-2.83A.375.375 0 0016.125 3h-8.25a.375.375 0 00-.375.375v2.83a49.353 49.353 0 019 0zm-.217 8.265c.178.018.317.16.333.337l.526 5.784a.375.375 0 01-.374.409H7.232a.375.375 0 01-.374-.409l.526-5.784a.373.373 0 01.333-.337 41.741 41.741 0 018.566 0zm.967-3.97a.75.75 0 01.75-.75h.008a.75.75 0 01.75.75v.008a.75.75 0 01-.75.75H18a.75.75 0 01-.75-.75V10.5zM15 9.75a.75.75 0 00-.75.75v.008c0 .414.336.75.75.75h.008a.75.75 0 00.75-.75V10.5a.75.75 0 00-.75-.75H15z"
     clip-rule="evenodd"
     id="path4825"
     style="fill:#ffffff;fill-opacity:1" />
</svg>
